<?xml version="1.0" standalone="no"?>
<!DOCTYPE svg PUBLIC "-//W3C//DTD SVG 20010904//EN"
 "http://www.w3.org/TR/2001/REC-SVG-20010904/DTD/svg10.dtd">
<svg version="1.0" xmlns="http://www.w3.org/2000/svg"
 width="697.000000pt" height="697.000000pt" viewBox="0 0 697.000000 697.000000"
 preserveAspectRatio="xMidYMid meet">
<metadata>
Created by potrace 1.16, written by Peter Selinger 2001-2019
</metadata>
<g transform="translate(0.000000,697.000000) scale(0.100000,-0.100000)"
fill="#000000" stroke="none">
<path d="M1610 5440 c-85 -17 -269 -51 -409 -76 -281 -50 -301 -58 -370 -145
l-35 -42 92 -1756 c51 -966 97 -1772 103 -1791 23 -75 79 -130 131 -130 13 0
93 16 178 35 175 40 415 85 605 112 122 17 225 18 1690 17 858 -1 1721 -6
1919 -11 197 -6 374 -7 393 -3 39 9 78 41 99 83 12 22 30 364 89 1670 41 903
75 1687 75 1743 0 88 -3 106 -26 153 -27 53 -85 106 -130 117 -13 3 -292 -33
-621 -81 -329 -48 -611 -89 -628 -90 l-30 -2 -7 -84 c-33 -392 -54 -808 -69
-1399 -6 -245 -13 -447 -15 -450 -9 -9 -124 -18 -239 -19 -130 -1 -245 10
-367 36 l-76 16 -11 63 c-60 340 -73 774 -36 1188 8 90 10 158 5 172 -13 32
-60 54 -117 54 -26 0 -80 11 -119 24 -206 70 -493 79 -884 26 -163 -21 -196
-38 -225 -114 -17 -43 -16 -68 32 -743 l49 -698 -41 -3 c-105 -8 -480 -29
-483 -27 -11 9 -70 432 -94 670 -17 175 -17 909 0 1115 18 220 15 210 67 210
65 0 76 6 64 38 -6 15 -22 46 -37 69 -39 61 -78 75 -237 79 -113 3 -151 -1
-285 -26z m253 -197 c-11 -47 -8 -1006 5 -1218 15 -248 38 -529 58 -700 16
-145 35 -186 104 -231 l35 -22 342 13 c385 15 387 16 423 90 27 55 26 82 -11
859 -26 536 -29 650 -18 657 8 4 56 16 109 26 74 14 144 18 315 18 216 0 242
-3 408 -41 l67 -16 0 -142 c0 -175 16 -601 30 -801 14 -202 49 -518 58 -526
12 -12 216 -59 329 -76 132 -20 481 -20 623 -1 l95 13 7 240 c18 648 36 1012
63 1315 16 175 44 402 50 408 2 2 202 28 445 58 378 46 449 52 492 43 92 -20
88 -3 88 -371 0 -284 -7 -421 -55 -1143 -41 -620 -58 -947 -69 -1339 -8 -285
-17 -520 -19 -522 -2 -2 -244 1 -538 7 -294 7 -1166 12 -1939 13 l-1405 1
-165 -23 c-91 -13 -266 -38 -390 -57 -123 -19 -226 -33 -227 -31 -15 14 -67
1124 -89 1861 -4 139 -27 451 -64 850 -35 380 -54 636 -49 646 5 9 19 19 31
21 13 3 71 20 129 37 193 57 501 108 667 110 l72 1 -7 -27z"/>
<path d="M5294 4893 c-21 -4 -22 -11 -29 -146 -9 -191 -2 -2448 8 -2468 14
-28 182 -51 216 -30 21 13 9 2420 -12 2496 -19 68 -53 132 -76 145 -19 10 -65
11 -107 3z"/>
<path d="M1371 4849 c-13 -5 -37 -19 -54 -31 l-30 -22 6 -335 c10 -482 30
-816 83 -1331 37 -371 93 -813 104 -824 15 -15 140 -13 187 3 35 12 42 18 38
35 -8 36 -54 421 -79 671 -52 502 -82 969 -92 1430 -7 289 -8 301 -30 333 -37
56 -93 86 -133 71z"/>
<path d="M3099 4406 c-24 -14 -26 -21 -32 -113 -10 -147 -8 -524 3 -754 23
-445 93 -1209 113 -1221 21 -13 118 -21 149 -12 17 5 40 22 52 37 25 34 25 27
-3 452 -31 479 -32 502 -45 986 l-13 454 -27 66 c-15 37 -38 77 -51 89 -31 29
-108 37 -146 16z"/>
<path d="M1962 2840 c-43 -31 -60 -67 -45 -93 17 -31 96 -87 151 -107 31 -12
90 -27 131 -33 143 -20 421 23 472 74 30 30 25 82 -10 112 -44 36 -117 52
-172 36 -26 -8 -98 -13 -174 -13 -122 0 -203 13 -296 49 -9 3 -33 -7 -57 -25z"/>
<path d="M3506 2785 c-43 -15 -56 -29 -49 -54 7 -28 74 -111 116 -145 l39 -31
221 -3 c162 -2 249 1 322 12 116 18 209 47 213 67 5 31 -39 80 -96 107 -55 26
-63 26 -257 28 -128 1 -237 7 -302 18 -123 19 -156 19 -207 1z"/>
</g>
</svg>
